# xmcd
#
# Track frame offsets: 
#        150
#        15220
#        31605
#        43743
#        52965
#        70323
#        89118
#        102703
#        119173
#        135793
#
# Disc length: 2026 seconds
#
# Revision: 1
# Processed by: cddbd v1.5.2PL0 Copyright (c) Steve Scherf et al.
# Submitted via: ExactAudioCopy v1.0b3
#
DISCID=8207e80a
DTITLE=Pam Tillis - Collection
DYEAR=1994
DGENRE=Country
TTITLE0=Maybe It Was Memphis
TTITLE1=One Of Those Things
TTITLE2=I Thought I'd About Had It With Love
TTITLE3=There Goes My Love
TTITLE4=Sometimes A Stranger Will Do
TTITLE5=Those Memories Of You
TTITLE6=I Wish She Wouldn't Treat You That Way
TTITLE7=Tennessee Nights
TTITLE8=Five Minutes
TTITLE9=Goodbye Highway
EXTD=Dream`Master - On Mircs Phazenet
EXTT0=
EXTT1=
EXTT2=
EXTT3=
EXTT4=
EXTT5=
EXTT6=
EXTT7=
EXTT8=
EXTT9=
PLAYORDER=
